[img]http://img219.imageshack.us/img219/7254/vanishingonseventhstree.jpg[/img]



[img]http://leetleech.org/images/48874973695367351744.png[/img]


DTRG - SAFCuk009.avi
Format                           : AVI
Format/Info                      : Audio Video Interleave
File size                        : 1.18 GiB
Duration                         : 1h 27mn
Overall bit rate                 : 1 935 Kbps
Writing application              : Nandub v1.0rc2
Writing library                  : VirtualDub build 32839/release

Video
ID                               : 0
Format                           : MPEG-4 Visual
Format profile                   : Advanced Simple@L5
Format settings, BVOP            : Yes
Format settings, QPel            : No
Format settings, GMC             : No warppoints
Format settings, Matrix          : Custom
Codec ID                         : XVID
Codec ID/Hint                    : XviD
Duration                         : 1h 27mn
Bit rate                         : 1 477 Kbps
Width                            : 720 pixels
Height                           : 304 pixels
Display aspect ratio             : 2.35:1
Frame rate                       : 25.000 fps
Color space                      : YUV
Chroma subsampling               : 4:2:0
Bit depth                        : 8 bits
Scan type                        : Progressive
Bits/(Pixel*Frame)               : 0.270
Stream size                      : 926 MiB (76%)
Writing library                  : XviD 1.2.1 (UTC 2008-12-04)

Audio
ID                               : 1
Format                           : AC-3
Format/Info                      : Audio Coding 3
Mode extension                   : CM (complete main)
Codec ID                         : 2000
Duration                         : 1h 27mn
Bit rate mode                    : Constant
Bit rate                         : 448 Kbps
Channel(s)                       : 6 channels
Channel positions                : Front: L C R, Side: L R, LFE
Sampling rate                    : 48.0 KHz
Bit depth                        : 16 bits
Stream size                      : 281 MiB (23%)
Alignment                        : Split accross interleaves
Interleave, duration             : 40 ms (1.00 video frame)
Interleave, preload duration     : 500 ms




[url]http://www.imdb.com/title/tt1452628/[/url]




[IMG]http://leetleech.org/images/89524873606771859129.png[/IMG]


Storyline

When a massive power outage plunges the city of Detroit into total darkness, a disparate group of individuals find themselves alone. The entire city's population has vanished into thin air, leaving behind heaps of empty clothing, abandoned cars and lengthening shadows. Soon the daylight begins to disappear completely, and as the survivors gather in an abandoned tavern, they realize the darkness is out to get them, and only their rapidly diminishing light sources can keep them safe.



[img]http://leetleech.org/images/95521316153253938506.png[/img]



 
http://img855.imageshack.us/img855/1109/vlcsnap2011031807h02m00.png
 
http://img638.imageshack.us/img638/2474/vlcsnap2011031807h02m38.png
 
http://img687.imageshack.us/img687/6383/vlcsnap2011031807h01m49.png


Sources

Video: Russian DVD-5
Ischeznovenie.na.7-j.ulitze.2010.D.DVD.ELEKTRI4KA........Thanks

Audio  Ink............... Thanks


Wasnt going to do this but was asked .Few filters to brighten and liven it up abit ........

Enjoy !


Greetz to Imagine ,Flawl3ss,DiLLoN,BDK,NOiR,TOXiCiNK,THC,Ez,Rx,





[img]http://img411.imageshack.us/img411/6898/sig1n.jpg[/img]




